<?xml version="1.0" standalone="no"?>
<!DOCTYPE svg PUBLIC "-//W3C//DTD SVG 20010904//EN"
 "http://www.w3.org/TR/2001/REC-SVG-20010904/DTD/svg10.dtd">
<svg version="1.0" xmlns="http://www.w3.org/2000/svg"
 width="512.000000pt" height="512.000000pt" viewBox="0 0 512.000000 512.000000"
 preserveAspectRatio="xMidYMid meet">
<metadata>
Created by potrace 1.14, written by Peter Selinger 2001-2017
</metadata>
<g transform="translate(0.000000,512.000000) scale(0.100000,-0.100000)"
fill="#000000" stroke="none">
<path d="M502 4278 c-10 -14 -82 -154 -82 -162 0 -2 87 -50 193 -107 105 -56
209 -113 230 -126 l37 -23 -2 -1287 -3 -1287 -205 -161 -205 -161 -3 -67 -3
-67 515 0 516 0 41 82 c36 72 39 83 26 93 -9 6 -113 61 -231 121 l-216 109 0
1260 c1 755 4 1254 10 1245 5 -9 266 -661 580 -1450 315 -789 574 -1441 577
-1448 4 -9 35 -12 126 -10 l121 3 583 1435 c320 789 584 1440 587 1445 2 6 5
-539 5 -1210 l1 -1220 -205 -160 -205 -160 0 -67 0 -68 665 0 665 0 41 81 c22
45 37 85 32 89 -4 4 -100 40 -213 80 -113 40 -213 76 -222 82 -17 8 -18 82
-18 1331 0 727 4 1327 8 1333 4 5 98 81 210 168 l202 157 0 70 0 69 -502 -2
-503 -3 -540 -1363 c-298 -750 -545 -1370 -551 -1379 -7 -12 -142 317 -559
1366 l-550 1381 -471 0 c-365 0 -474 -3 -482 -12z"/>
</g>
</svg>
